<?xml version="1.0" encoding="UTF-8"?>
<svg width="854px" height="128px" viewBox="0 0 854 128" version="1.1" xmlns="http://www.w3.org/2000/svg" xmlns:xlink="http://www.w3.org/1999/xlink">
    <g id="logo" stroke="none" stroke-width="1" fill="none" fill-rule="evenodd">
        <g id="Group" transform="translate(20.000000, 26.000000)" fill="currentColor" fill-rule="nonzero">
            <path d="M38,0 C17.0363489,8.64019967e-15 0,17.0131776 0,38 C0,58.9868224 17.0363489,76 38,76 C55.919586,76 70.9101492,63.7028109 75,47 L56,47 C52.2936865,53.4428899 45.6856317,57.76 38,58 C27.1237419,57.76 18.2648402,48.913144 18,38 C18.2648402,27.086856 27.1237419,18.24 38,18 C45.6856317,18.24 52.2936865,22.5571101 56,29 L75,29 C70.9101492,12.2971891 55.919586,0 38,0 Z" id="path6431"></path>
            <polygon id="rect6071-2" points="87 1 87 74 105 74 105 47 136 47 136 74 154 74 154 1 136 1 136 28 105 28 105 1"></polygon>
            <path d="M170,1 L170,74 L189,74 L189,53 L205,53 L222,74 L243,74 L225,51 C232.193919,48.1120708 240.2625,40.5416667 240,27 C240.2625,1 215.929167,1 216,1 L170,1 Z M189,19 L215,19 C214.65237,19 220.688222,20.5 221,27 C221.291807,32.5 214.65237,34 215,34 L189,34 L189,19 Z" id="rect6096-4"></path>
            <polygon id="path6163-5" points="337 1 337 74 355 74 355 31 380 62 404 31 404 74 422 74 422 1 408 1 380 31 351 1"></polygon>
            <path d="M470,1 L434,74 L454,74 L460,62 L493,62 L499,74 L519,74 L483,1 L470,1 Z M477,24 L489,47 L466,47 L477,24 Z" id="path6165-6"></path>
            <polygon id="rect6169-2" points="513 1 513 18 540 18 540 74 559 74 559 18 586 18 586 1 556 1 543 1"></polygon>
            <polygon id="rect6177-6" points="597 1 615 1 615 74 597 74"></polygon>
            <path d="M649,64 C649,70.0751322 644.29899,75 639,75 C632.70101,75 628,70.0751322 628,64 C628,57.9248678 632.70101,53 639,53 C644.29899,53 649,57.9248678 649,64 Z" id="path6273-5"></path>
            <path d="M288,0 C267.013178,8.64019967e-15 250,17.0131776 250,38 C250,58.9868224 267.013178,76 288,76 C308.986822,76 326,58.9868224 326,38 C326,17.0131776 308.986822,0 288,0 Z M288,18 C299.045692,18 308,26.9543077 308,38 C308,49.0456923 299.045692,58 288,58 C276.954308,58 268,49.0456923 268,38 C268,26.9543077 276.954308,18 288,18 Z" id="path6431-6"></path>
            <path d="M693,0 C672.036347,8.64019967e-15 655,17.0131776 655,38 C655,58.9868224 672.036347,76 693,76 C710.919574,76 725.910137,63.7028109 730,47 L711,47 C707.293699,53.4428899 700.685662,57.76 693,58 C682.123775,57.76 673.26484,48.913144 673,38 C673.26484,27.086856 682.123775,18.24 693,18 C700.685662,18.24 707.293699,22.5571101 711,29 L730,29 C725.910137,12.2971891 710.919574,0 693,0 Z" id="path6431-6-2"></path>
            <path d="M775,0 C754.013178,8.64019967e-15 737,17.0131776 737,38 C737,58.9868224 754.013178,76 775,76 C795.986822,76 813,58.9868224 813,38 C813,17.0131776 795.986822,0 775,0 Z M775,18 C786.045723,18 795,26.9543077 795,38 C795,49.0456923 786.045723,58 775,58 C763.954338,58 755,49.0456923 755,38 C755,26.9543077 763.954338,18 775,18 Z" id="path6431-6-5"></path>
        </g>
    </g>
</svg>